<svg version="1.1" xmlns="http://www.w3.org/2000/svg" xmlns:xlink="http://www.w3.org/1999/xlink" width="711" height="444"><defs/><g><text fill="#eeeeee" stroke="none" font-family="Arial" font-size="24px" font-style="normal" font-weight="normal" text-decoration="none" x="0" y="0">UNREGISTERED</text><text fill="#eeeeee" stroke="none" font-family="Arial" font-size="24px" font-style="normal" font-weight="normal" text-decoration="none" x="0" y="30">UNREGISTERED</text><text fill="#eeeeee" stroke="none" font-family="Arial" font-size="24px" font-style="normal" font-weight="normal" text-decoration="none" x="0" y="60">UNREGISTERED</text><text fill="#eeeeee" stroke="none" font-family="Arial" font-size="24px" font-style="normal" font-weight="normal" text-decoration="none" x="0" y="90">UNREGISTERED</text><text fill="#eeeeee" stroke="none" font-family="Arial" font-size="24px" font-style="normal" font-weight="normal" text-decoration="none" x="0" y="120">UNREGISTERED</text><text fill="#eeeeee" stroke="none" font-family="Arial" font-size="24px" font-style="normal" font-weight="normal" text-decoration="none" x="0" y="150">UNREGISTERED</text><text fill="#eeeeee" stroke="none" font-family="Arial" font-size="24px" font-style="normal" font-weight="normal" text-decoration="none" x="0" y="180">UNREGISTERED</text><text fill="#eeeeee" stroke="none" font-family="Arial" font-size="24px" font-style="normal" font-weight="normal" text-decoration="none" x="0" y="210">UNREGISTERED</text><text fill="#eeeeee" stroke="none" font-family="Arial" font-size="24px" font-style="normal" font-weight="normal" text-decoration="none" x="0" y="240">UNREGISTERED</text><text fill="#eeeeee" stroke="none" font-family="Arial" font-size="24px" font-style="normal" font-weight="normal" text-decoration="none" x="0" y="270">UNREGISTERED</text><text fill="#eeeeee" stroke="none" font-family="Arial" font-size="24px" font-style="normal" font-weight="normal" text-decoration="none" x="0" y="300">UNREGISTERED</text><text fill="#eeeeee" stroke="none" font-family="Arial" font-size="24px" font-style="normal" font-weight="normal" text-decoration="none" x="0" y="330">UNREGISTERED</text><text fill="#eeeeee" stroke="none" font-family="Arial" font-size="24px" font-style="normal" font-weight="normal" text-decoration="none" x="0" y="360">UNREGISTERED</text><text fill="#eeeeee" stroke="none" font-family="Arial" font-size="24px" font-style="normal" font-weight="normal" text-decoration="none" x="0" y="390">UNREGISTERED</text><text fill="#eeeeee" stroke="none" font-family="Arial" font-size="24px" font-style="normal" font-weight="normal" text-decoration="none" x="0" y="420">UNREGISTERED</text><text fill="#eeeeee" stroke="none" font-family="Arial" font-size="24px" font-style="normal" font-weight="normal" text-decoration="none" x="200" y="0">UNREGISTERED</text><text fill="#eeeeee" stroke="none" font-family="Arial" font-size="24px" font-style="normal" font-weight="normal" text-decoration="none" x="200" y="30">UNREGISTERED</text><text fill="#eeeeee" stroke="none" font-family="Arial" font-size="24px" font-style="normal" font-weight="normal" text-decoration="none" x="200" y="60">UNREGISTERED</text><text fill="#eeeeee" stroke="none" font-family="Arial" font-size="24px" font-style="normal" font-weight="normal" text-decoration="none" x="200" y="90">UNREGISTERED</text><text fill="#eeeeee" stroke="none" font-family="Arial" font-size="24px" font-style="normal" font-weight="normal" text-decoration="none" x="200" y="120">UNREGISTERED</text><text fill="#eeeeee" stroke="none" font-family="Arial" font-size="24px" font-style="normal" font-weight="normal" text-decoration="none" x="200" y="150">UNREGISTERED</text><text fill="#eeeeee" stroke="none" font-family="Arial" font-size="24px" font-style="normal" font-weight="normal" text-decoration="none" x="200" y="180">UNREGISTERED</text><text fill="#eeeeee" stroke="none" font-family="Arial" font-size="24px" font-style="normal" font-weight="normal" text-decoration="none" x="200" y="210">UNREGISTERED</text><text fill="#eeeeee" stroke="none" font-family="Arial" font-size="24px" font-style="normal" font-weight="normal" text-decoration="none" x="200" y="240">UNREGISTERED</text><text fill="#eeeeee" stroke="none" font-family="Arial" font-size="24px" font-style="normal" font-weight="normal" text-decoration="none" x="200" y="270">UNREGISTERED</text><text fill="#eeeeee" stroke="none" font-family="Arial" font-size="24px" font-style="normal" font-weight="normal" text-decoration="none" x="200" y="300">UNREGISTERED</text><text fill="#eeeeee" stroke="none" font-family="Arial" font-size="24px" font-style="normal" font-weight="normal" text-decoration="none" x="200" y="330">UNREGISTERED</text><text fill="#eeeeee" stroke="none" font-family="Arial" font-size="24px" font-style="normal" font-weight="normal" text-decoration="none" x="200" y="360">UNREGISTERED</text><text fill="#eeeeee" stroke="none" font-family="Arial" font-size="24px" font-style="normal" font-weight="normal" text-decoration="none" x="200" y="390">UNREGISTERED</text><text fill="#eeeeee" stroke="none" font-family="Arial" font-size="24px" font-style="normal" font-weight="normal" text-decoration="none" x="200" y="420">UNREGISTERED</text><text fill="#eeeeee" stroke="none" font-family="Arial" font-size="24px" font-style="normal" font-weight="normal" text-decoration="none" x="400" y="0">UNREGISTERED</text><text fill="#eeeeee" stroke="none" font-family="Arial" font-size="24px" font-style="normal" font-weight="normal" text-decoration="none" x="400" y="30">UNREGISTERED</text><text fill="#eeeeee" stroke="none" font-family="Arial" font-size="24px" font-style="normal" font-weight="normal" text-decoration="none" x="400" y="60">UNREGISTERED</text><text fill="#eeeeee" stroke="none" font-family="Arial" font-size="24px" font-style="normal" font-weight="normal" text-decoration="none" x="400" y="90">UNREGISTERED</text><text fill="#eeeeee" stroke="none" font-family="Arial" font-size="24px" font-style="normal" font-weight="normal" text-decoration="none" x="400" y="120">UNREGISTERED</text><text fill="#eeeeee" stroke="none" font-family="Arial" font-size="24px" font-style="normal" font-weight="normal" text-decoration="none" x="400" y="150">UNREGISTERED</text><text fill="#eeeeee" stroke="none" font-family="Arial" font-size="24px" font-style="normal" font-weight="normal" text-decoration="none" x="400" y="180">UNREGISTERED</text><text fill="#eeeeee" stroke="none" font-family="Arial" font-size="24px" font-style="normal" font-weight="normal" text-decoration="none" x="400" y="210">UNREGISTERED</text><text fill="#eeeeee" stroke="none" font-family="Arial" font-size="24px" font-style="normal" font-weight="normal" text-decoration="none" x="400" y="240">UNREGISTERED</text><text fill="#eeeeee" stroke="none" font-family="Arial" font-size="24px" font-style="normal" font-weight="normal" text-decoration="none" x="400" y="270">UNREGISTERED</text><text fill="#eeeeee" stroke="none" font-family="Arial" font-size="24px" font-style="normal" font-weight="normal" text-decoration="none" x="400" y="300">UNREGISTERED</text><text fill="#eeeeee" stroke="none" font-family="Arial" font-size="24px" font-style="normal" font-weight="normal" text-decoration="none" x="400" y="330">UNREGISTERED</text><text fill="#eeeeee" stroke="none" font-family="Arial" font-size="24px" font-style="normal" font-weight="normal" text-decoration="none" x="400" y="360">UNREGISTERED</text><text fill="#eeeeee" stroke="none" font-family="Arial" font-size="24px" font-style="normal" font-weight="normal" text-decoration="none" x="400" y="390">UNREGISTERED</text><text fill="#eeeeee" stroke="none" font-family="Arial" font-size="24px" font-style="normal" font-weight="normal" text-decoration="none" x="400" y="420">UNREGISTERED</text><text fill="#eeeeee" stroke="none" font-family="Arial" font-size="24px" font-style="normal" font-weight="normal" text-decoration="none" x="600" y="0">UNREGISTERED</text><text fill="#eeeeee" stroke="none" font-family="Arial" font-size="24px" font-style="normal" font-weight="normal" text-decoration="none" x="600" y="30">UNREGISTERED</text><text fill="#eeeeee" stroke="none" font-family="Arial" font-size="24px" font-style="normal" font-weight="normal" text-decoration="none" x="600" y="60">UNREGISTERED</text><text fill="#eeeeee" stroke="none" font-family="Arial" font-size="24px" font-style="normal" font-weight="normal" text-decoration="none" x="600" y="90">UNREGISTERED</text><text fill="#eeeeee" stroke="none" font-family="Arial" font-size="24px" font-style="normal" font-weight="normal" text-decoration="none" x="600" y="120">UNREGISTERED</text><text fill="#eeeeee" stroke="none" font-family="Arial" font-size="24px" font-style="normal" font-weight="normal" text-decoration="none" x="600" y="150">UNREGISTERED</text><text fill="#eeeeee" stroke="none" font-family="Arial" font-size="24px" font-style="normal" font-weight="normal" text-decoration="none" x="600" y="180">UNREGISTERED</text><text fill="#eeeeee" stroke="none" font-family="Arial" font-size="24px" font-style="normal" font-weight="normal" text-decoration="none" x="600" y="210">UNREGISTERED</text><text fill="#eeeeee" stroke="none" font-family="Arial" font-size="24px" font-style="normal" font-weight="normal" text-decoration="none" x="600" y="240">UNREGISTERED</text><text fill="#eeeeee" stroke="none" font-family="Arial" font-size="24px" font-style="normal" font-weight="normal" text-decoration="none" x="600" y="270">UNREGISTERED</text><text fill="#eeeeee" stroke="none" font-family="Arial" font-size="24px" font-style="normal" font-weight="normal" text-decoration="none" x="600" y="300">UNREGISTERED</text><text fill="#eeeeee" stroke="none" font-family="Arial" font-size="24px" font-style="normal" font-weight="normal" text-decoration="none" x="600" y="330">UNREGISTERED</text><text fill="#eeeeee" stroke="none" font-family="Arial" font-size="24px" font-style="normal" font-weight="normal" text-decoration="none" x="600" y="360">UNREGISTERED</text><text fill="#eeeeee" stroke="none" font-family="Arial" font-size="24px" font-style="normal" font-weight="normal" text-decoration="none" x="600" y="390">UNREGISTERED</text><text fill="#eeeeee" stroke="none" font-family="Arial" font-size="24px" font-style="normal" font-weight="normal" text-decoration="none" x="600" y="420">UNREGISTERED</text><g transform="translate(-214,10) scale(1,1)"><path fill="none" stroke="#000000" d="M 224 0 L 915 0 L 915 424 L 224 424 L 224 0" stroke-miterlimit="10"/></g><g transform="translate(-214,10) scale(1,1)"><path fill="#ffffff" stroke="none" d="M 224 0 L 224 22 L 275.40087890625 22 L 286.40087890625 11 L 286.40087890625 0 L 224 0"/></g><g transform="translate(-214,10) scale(1,1)"><path fill="none" stroke="#000000" d="M 224 0 L 224 22 L 275.40087890625 22 L 286.40087890625 11 L 286.40087890625 0 L 224 0 L 224 0" stroke-miterlimit="10"/></g><g transform="translate(-214,10) scale(1,1)"><g><path fill="none" stroke="none"/><text fill="#000000" stroke="none" font-family="Arial" font-size="13px" font-style="normal" font-weight="normal" text-decoration="none" x="248.72998046875" y="17.5">IBD</text></g></g><g transform="translate(-214,10) scale(1,1)"><g><path fill="none" stroke="none"/><text fill="#000000" stroke="none" font-family="Arial" font-size="13px" font-style="normal" font-weight="bold" text-decoration="none" x="229" y="17.5">sd</text></g></g><g transform="translate(-214,10) scale(1,1)"><rect fill="#C0C0C0" stroke="none" x="383" y="47" width="77.5" height="39" opacity="0.2"/></g><g transform="translate(-214,10) scale(1,1)"><rect fill="#ffffff" stroke="none" x="376" y="40" width="77.5" height="39"/></g><g transform="translate(-214,10) scale(1,1)"><path fill="none" stroke="#000000" d="M 376 40 L 453.5 40 L 453.5 79 L 376 79 L 376 40 Z Z" stroke-miterlimit="10"/></g><g transform="translate(-214,10) scale(1,1)"><g><path fill="none" stroke="none"/><text fill="#000000" stroke="none" font-family="Arial" font-size="13px" font-style="normal" font-weight="bold" text-decoration="none" x="386.569580078125" y="59.5">IBD Node</text></g></g><g transform="translate(-214,10) scale(1,1)"><path fill="none" stroke="#000000" d="M 415.5 80 L 415.5 400" stroke-miterlimit="10" stroke-dasharray="3"/></g><g transform="translate(-214,10) scale(1,1)"><rect fill="#C0C0C0" stroke="none" x="679" y="47" width="86.18359375" height="39" opacity="0.2"/></g><g transform="translate(-214,10) scale(1,1)"><rect fill="#ffffff" stroke="none" x="672" y="40" width="86.18359375" height="39"/></g><g transform="translate(-214,10) scale(1,1)"><path fill="none" stroke="#000000" d="M 672 40 L 758.18359375 40 L 758.18359375 79 L 672 79 L 672 40 Z Z" stroke-miterlimit="10"/></g><g transform="translate(-214,10) scale(1,1)"><g><path fill="none" stroke="none"/><text fill="#000000" stroke="none" font-family="Arial" font-size="13px" font-style="normal" font-weight="bold" text-decoration="none" x="683.29638671875" y="59.5">Sync Node</text></g></g><g transform="translate(-214,10) scale(1,1)"><path fill="none" stroke="#000000" d="M 716.5 80 L 716.5 400" stroke-miterlimit="10" stroke-dasharray="3"/></g><g transform="translate(-214,10) scale(1,1)"><path fill="none" stroke="#000000" d="M 415 128 L 709 128" stroke-miterlimit="10"/></g><g transform="translate(-214,10) scale(1,1)"><path fill="#000000" stroke="none" d="M 698.8373251423759 132.209517756016 L 709 128 L 698.8373251423758 123.79048224398402"/></g><g transform="translate(-214,10) scale(1,1)"><path fill="none" stroke="#000000" d="M 698.8373251423759 132.209517756016 L 709 128 L 698.8373251423758 123.79048224398402 L 698.8373251423759 132.209517756016" stroke-miterlimit="10"/></g><g transform="translate(-214,10) scale(1,1)"><g><path fill="none" stroke="none"/><text fill="#000000" stroke="none" font-family="Arial" font-size="13px" font-style="normal" font-weight="normal" text-decoration="none" x="525.029541015625" y="124.5">1 : getblocks</text></g></g><g transform="translate(-214,10) scale(1,1)"><rect fill="#ffffff" stroke="none" x="709" y="128" width="13" height="56"/></g><g transform="translate(-214,10) scale(1,1)"><path fill="none" stroke="#000000" d="M 709 128 L 722 128 L 722 184 L 709 184 L 709 128 Z Z" stroke-miterlimit="10"/></g><g transform="translate(-214,10) scale(1,1)"><path fill="none" stroke="#000000" d="M 716 184 L 421 184" stroke-miterlimit="10"/></g><g transform="translate(-214,10) scale(1,1)"><path fill="#000000" stroke="none" d="M 431.16267485762415 179.790482243984 L 421 184 L 431.16267485762415 188.209517756016"/></g><g transform="translate(-214,10) scale(1,1)"><path fill="none" stroke="#000000" d="M 431.16267485762415 179.790482243984 L 421 184 L 431.16267485762415 188.209517756016 L 431.16267485762415 179.790482243984" stroke-miterlimit="10"/></g><g transform="translate(-214,10) scale(1,1)"><g><path fill="none" stroke="none"/><text fill="#000000" stroke="none" font-family="Arial" font-size="13px" font-style="normal" font-weight="normal" text-decoration="none" x="549.180419921875" y="200.5">2 : inv</text></g></g><g transform="translate(-214,10) scale(1,1)"><rect fill="#ffffff" stroke="none" x="408" y="184" width="13" height="72"/></g><g transform="translate(-214,10) scale(1,1)"><path fill="none" stroke="#000000" d="M 408 184 L 421 184 L 421 256 L 408 256 L 408 184 Z Z" stroke-miterlimit="10"/></g><g transform="translate(-214,10) scale(1,1)"><path fill="none" stroke="#000000" d="M 415 256 L 709 256" stroke-miterlimit="10"/></g><g transform="translate(-214,10) scale(1,1)"><path fill="#000000" stroke="none" d="M 698.8373251423759 260.209517756016 L 709 256 L 698.8373251423758 251.790482243984"/></g><g transform="translate(-214,10) scale(1,1)"><path fill="none" stroke="#000000" d="M 698.8373251423759 260.209517756016 L 709 256 L 698.8373251423758 251.790482243984 L 698.8373251423759 260.209517756016" stroke-miterlimit="10"/></g><g transform="translate(-214,10) scale(1,1)"><g><path fill="none" stroke="none"/><text fill="#000000" stroke="none" font-family="Arial" font-size="13px" font-style="normal" font-weight="normal" text-decoration="none" x="530.802734375" y="252.5">3 : getdata</text></g></g><g transform="translate(-214,10) scale(1,1)"><rect fill="#ffffff" stroke="none" x="709" y="256" width="13" height="72"/></g><g transform="translate(-214,10) scale(1,1)"><path fill="none" stroke="#000000" d="M 709 256 L 722 256 L 722 328 L 709 328 L 709 256 Z Z" stroke-miterlimit="10"/></g><g transform="translate(-214,10) scale(1,1)"><path fill="none" stroke="#000000" d="M 716 328 L 421 328" stroke-miterlimit="10"/></g><g transform="translate(-214,10) scale(1,1)"><path fill="#000000" stroke="none" d="M 431.16267485762415 323.790482243984 L 421 328 L 431.16267485762415 332.209517756016"/></g><g transform="translate(-214,10) scale(1,1)"><path fill="none" stroke="#000000" d="M 431.16267485762415 323.790482243984 L 421 328 L 431.16267485762415 332.209517756016 L 431.16267485762415 323.790482243984" stroke-miterlimit="10"/></g><g transform="translate(-214,10) scale(1,1)"><g><path fill="none" stroke="none"/><text fill="#000000" stroke="none" font-family="Arial" font-size="13px" font-style="normal" font-weight="normal" text-decoration="none" x="542.3154296875" y="344.5">4 : block</text></g></g><g transform="translate(-214,10) scale(1,1)"><rect fill="#ffffff" stroke="none" x="408" y="328" width="13" height="28"/></g><g transform="translate(-214,10) scale(1,1)"><path fill="none" stroke="#000000" d="M 408 328 L 421 328 L 421 356 L 408 356 L 408 328 Z Z" stroke-miterlimit="10"/></g><g transform="translate(-214,10) scale(1,1)"><path fill="none" stroke="#000000" d="M 376 296 L 752 296 L 752 368 L 376 368 L 376 296" stroke-miterlimit="10"/></g><g transform="translate(-214,10) scale(1,1)"><path fill="#ffffff" stroke="none" d="M 376 296 L 376 318 L 423.80810546875 318 L 434.80810546875 307 L 434.80810546875 296 L 376 296"/></g><g transform="translate(-214,10) scale(1,1)"><path fill="none" stroke="#000000" d="M 376 296 L 376 318 L 423.80810546875 318 L 434.80810546875 307 L 434.80810546875 296 L 376 296 L 376 296" stroke-miterlimit="10"/></g><g transform="translate(-214,10) scale(1,1)"><g><path fill="none" stroke="none"/><text fill="#000000" stroke="none" font-family="Arial" font-size="13px" font-style="normal" font-weight="normal" text-decoration="none" x="411.578125" y="313.5">n</text></g></g><g transform="translate(-214,10) scale(1,1)"><g><path fill="none" stroke="none"/><text fill="#000000" stroke="none" font-family="Arial" font-size="13px" font-style="normal" font-weight="bold" text-decoration="none" x="381" y="313.5">loop</text></g></g></g></svg>